<mxfile host="app.diagrams.net" agent="Mozilla/5.0 (Macintosh; Intel Mac OS X 10_15_7) AppleWebKit/537.36 (KHTML, like Gecko) Chrome/129.0.0.0 Safari/537.36" version="24.7.17">
  <diagram name="Page-1" id="tJ2HB-wRjhqufpzZWdAr">
    <mxGraphModel dx="2334" dy="2551" grid="1" gridSize="10" guides="1" tooltips="1" connect="1" arrows="1" fold="1" page="1" pageScale="1" pageWidth="1600" pageHeight="900" math="0" shadow="0">
      <root>
        <mxCell id="0" />
        <mxCell id="1" parent="0" />
        <mxCell id="d_yNR731tC_WHLAa_Ngo-1" value="OFS" style="rounded=0;whiteSpace=wrap;html=1;" parent="1" vertex="1">
          <mxGeometry x="1150" y="-620" width="120" height="60" as="geometry" />
        </mxCell>
        <mxCell id="6DLrIXvCViXxIR4VkGdB-2" style="edgeStyle=orthogonalEdgeStyle;rounded=0;orthogonalLoop=1;jettySize=auto;html=1;entryX=0;entryY=0.5;entryDx=0;entryDy=0;" parent="1" source="6DLrIXvCViXxIR4VkGdB-1" target="d_yNR731tC_WHLAa_Ngo-1" edge="1">
          <mxGeometry relative="1" as="geometry" />
        </mxCell>
        <mxCell id="6DLrIXvCViXxIR4VkGdB-1" value="Marvel" style="whiteSpace=wrap;html=1;" parent="1" vertex="1">
          <mxGeometry x="900" y="-620" width="120" height="60" as="geometry" />
        </mxCell>
        <mxCell id="6DLrIXvCViXxIR4VkGdB-4" value="" style="edgeStyle=orthogonalEdgeStyle;rounded=0;orthogonalLoop=1;jettySize=auto;html=1;" parent="1" source="6DLrIXvCViXxIR4VkGdB-3" target="d_yNR731tC_WHLAa_Ngo-1" edge="1">
          <mxGeometry relative="1" as="geometry" />
        </mxCell>
        <mxCell id="6DLrIXvCViXxIR4VkGdB-3" value="Ads specific ES index (Ads OFS Indexer)" style="shape=process;whiteSpace=wrap;html=1;backgroundOutline=1;" parent="1" vertex="1">
          <mxGeometry x="1150" y="-480" width="120" height="60" as="geometry" />
        </mxCell>
        <mxCell id="6DLrIXvCViXxIR4VkGdB-6" style="edgeStyle=orthogonalEdgeStyle;rounded=0;orthogonalLoop=1;jettySize=auto;html=1;entryX=0;entryY=0.5;entryDx=0;entryDy=0;" parent="1" source="6DLrIXvCViXxIR4VkGdB-5" target="6DLrIXvCViXxIR4VkGdB-1" edge="1">
          <mxGeometry relative="1" as="geometry">
            <mxPoint x="800" y="-590" as="targetPoint" />
          </mxGeometry>
        </mxCell>
        <mxCell id="6DLrIXvCViXxIR4VkGdB-5" value="Kafka(Campaign_catalog_update topic)" style="rounded=1;whiteSpace=wrap;html=1;" parent="1" vertex="1">
          <mxGeometry x="570" y="-620" width="190" height="60" as="geometry" />
        </mxCell>
        <mxCell id="6DLrIXvCViXxIR4VkGdB-9" style="edgeStyle=orthogonalEdgeStyle;rounded=0;orthogonalLoop=1;jettySize=auto;html=1;entryX=0;entryY=0.5;entryDx=0;entryDy=0;" parent="1" source="6DLrIXvCViXxIR4VkGdB-7" target="6DLrIXvCViXxIR4VkGdB-5" edge="1">
          <mxGeometry relative="1" as="geometry" />
        </mxCell>
        <mxCell id="6DLrIXvCViXxIR4VkGdB-7" value="CMS" style="whiteSpace=wrap;html=1;" parent="1" vertex="1">
          <mxGeometry x="330" y="-620" width="120" height="60" as="geometry" />
        </mxCell>
        <mxCell id="6DLrIXvCViXxIR4VkGdB-11" style="edgeStyle=orthogonalEdgeStyle;rounded=0;orthogonalLoop=1;jettySize=auto;html=1;" parent="1" source="6DLrIXvCViXxIR4VkGdB-10" target="d_yNR731tC_WHLAa_Ngo-1" edge="1">
          <mxGeometry relative="1" as="geometry" />
        </mxCell>
        <mxCell id="6DLrIXvCViXxIR4VkGdB-10" value="Organic OFS Index" style="shape=process;whiteSpace=wrap;html=1;backgroundOutline=1;" parent="1" vertex="1">
          <mxGeometry x="1390" y="-620" width="120" height="60" as="geometry" />
        </mxCell>
        <mxCell id="6DLrIXvCViXxIR4VkGdB-14" style="edgeStyle=orthogonalEdgeStyle;rounded=0;orthogonalLoop=1;jettySize=auto;html=1;" parent="1" source="6DLrIXvCViXxIR4VkGdB-12" edge="1">
          <mxGeometry relative="1" as="geometry">
            <mxPoint x="1170" y="-235" as="targetPoint" />
          </mxGeometry>
        </mxCell>
        <mxCell id="6DLrIXvCViXxIR4VkGdB-12" value="LIVE_ON_AD_FEATURE_PUBLISHER Scheduler" style="whiteSpace=wrap;html=1;" parent="1" vertex="1">
          <mxGeometry x="730" y="-290" width="230" height="110" as="geometry" />
        </mxCell>
        <mxCell id="6DLrIXvCViXxIR4VkGdB-15" value="VSS" style="whiteSpace=wrap;html=1;" parent="1" vertex="1">
          <mxGeometry x="1170" y="-265" width="120" height="60" as="geometry" />
        </mxCell>
        <mxCell id="6DLrIXvCViXxIR4VkGdB-18" value="" style="edgeStyle=orthogonalEdgeStyle;rounded=0;orthogonalLoop=1;jettySize=auto;html=1;" parent="1" source="6DLrIXvCViXxIR4VkGdB-17" target="6DLrIXvCViXxIR4VkGdB-12" edge="1">
          <mxGeometry relative="1" as="geometry" />
        </mxCell>
        <mxCell id="6DLrIXvCViXxIR4VkGdB-17" value="CMS" style="rounded=1;whiteSpace=wrap;html=1;" parent="1" vertex="1">
          <mxGeometry x="785" y="-90" width="120" height="60" as="geometry" />
        </mxCell>
        <mxCell id="6DLrIXvCViXxIR4VkGdB-19" value="Ad active catalogs to vss flow" style="text;html=1;align=center;verticalAlign=middle;whiteSpace=wrap;rounded=0;" parent="1" vertex="1">
          <mxGeometry x="550" y="-360" width="230" height="30" as="geometry" />
        </mxCell>
      </root>
    </mxGraphModel>
  </diagram>
</mxfile>
